<svg
	id="visual"
	viewBox="0 0 1440 200"
	width="1440"
	height="200"
	xmlns="http://www.w3.org/2000/svg"
	xmlns:xlink="http://www.w3.org/1999/xlink"
	version="1.1"
>
	<title>Animated footer wave</title>
	<desc>Layered waves with gentle looping motion.</desc>

	<path
		d="M0 61L18.5 59.8C37 58.7 74 56.3 111 57.2C148 58 185 62 221.8 68C258.7 74 295.3 82 332.2 87.3C369 92.7 406 95.3 443 87.2C480 79 517 60 554 53.2C591 46.3 628 51.7 664.8 61.8C701.7 72 738.3 87 775.2 95C812 103 849 104 886 96C923 88 960 71 997 63.5C1034 56 1071 58 1107.8 64C1144.7 70 1181.3 80 1218.2 87.3C1255 94.7 1292 99.3 1329 100.2C1366 101 1403 98 1421.5 96.5L1440 95L1440 201L1421.5 201C1403 201 1366 201 1329 201C1292 201 1255 201 1218.2 201C1181.3 201 1144.7 201 1107.8 201C1071 201 1034 201 997 201C960 201 923 201 886 201C849 201 812 201 775.2 201C738.3 201 701.7 201 664.8 201C628 201 591 201 554 201C517 201 480 201 443 201C406 201 369 201 332.2 201C295.3 201 258.7 201 221.8 201C185 201 148 201 111 201C74 201 37 201 18.5 201L0 201Z"
		fill="#1ebdbd"
	>
		<animateTransform
			attributeName="transform"
			type="translate"
			values="0 -2; 0 0; 0 -2"
			dur="8s"
			repeatCount="indefinite"
		/>
	</path>

	<path
		d="M0 106L18.5 113.2C37 120.3 74 134.7 111 136.2C148 137.7 185 126.3 221.8 126.5C258.7 126.7 295.3 138.3 332.2 144C369 149.7 406 149.3 443 145.3C480 141.3 517 133.7 554 130.5C591 127.3 628 128.7 664.8 128.2C701.7 127.7 738.3 125.3 775.2 127.3C812 129.3 849 135.7 886 141.7C923 147.7 960 153.3 997 153.5C1034 153.7 1071 148.3 1107.8 148C1144.7 147.7 1181.3 152.3 1218.2 148.3C1255 144.3 1292 131.7 1329 131C1366 130.3 1403 141.7 1421.5 147.3L1440 153L1440 201L1421.5 201C1403 201 1366 201 1329 201C1292 201 1255 201 1218.2 201C1181.3 201 1144.7 201 1107.8 201C1071 201 1034 201 997 201C960 201 923 201 886 201C849 201 812 201 775.2 201C738.3 201 701.7 201 664.8 201C628 201 591 201 554 201C517 201 480 201 443 201C406 201 369 201 332.2 201C295.3 201 258.7 201 221.8 201C185 201 148 201 111 201C74 201 37 201 18.5 201L0 201Z"
		fill="#71bf2f"
	>
		<animateTransform
			attributeName="transform"
			type="translate"
			values="0 0; 0 -3; 0 0"
			dur="6.5s"
			repeatCount="indefinite"
		/>
	</path>
</svg>