<svg id="visual" viewBox="0 0 900 600" width="900" height="600" xmlns="http://www.w3.org/2000/svg" xmlns:xlink="http://www.w3.org/1999/xlink" version="1.1"><path d="M0 480L18.8 480C37.7 480 75.3 480 112.8 482.3C150.3 484.7 187.7 489.3 225.2 491.7C262.7 494 300.3 494 337.8 490.2C375.3 486.3 412.7 478.7 450.2 474.2C487.7 469.7 525.3 468.3 562.8 472.7C600.3 477 637.7 487 675.2 486.8C712.7 486.7 750.3 476.3 787.8 471.2C825.3 466 862.7 466 881.3 466L900 466L900 601L881.3 601C862.7 601 825.3 601 787.8 601C750.3 601 712.7 601 675.2 601C637.7 601 600.3 601 562.8 601C525.3 601 487.7 601 450.2 601C412.7 601 375.3 601 337.8 601C300.3 601 262.7 601 225.2 601C187.7 601 150.3 601 112.8 601C75.3 601 37.7 601 18.8 601L0 601Z" fill="#1ebdbd"></path><path d="M0 502L18.8 502.7C37.7 503.3 75.3 504.7 112.8 508.7C150.3 512.7 187.7 519.3 225.2 521.7C262.7 524 300.3 522 337.8 520.3C375.3 518.7 412.7 517.3 450.2 518.8C487.7 520.3 525.3 524.7 562.8 524C600.3 523.3 637.7 517.7 675.2 514C712.7 510.3 750.3 508.7 787.8 511.5C825.3 514.3 862.7 521.7 881.3 525.3L900 529L900 601L881.3 601C862.7 601 825.3 601 787.8 601C750.3 601 712.7 601 675.2 601C637.7 601 600.3 601 562.8 601C525.3 601 487.7 601 450.2 601C412.7 601 375.3 601 337.8 601C300.3 601 262.7 601 225.2 601C187.7 601 150.3 601 112.8 601C75.3 601 37.7 601 18.8 601L0 601Z" fill="#00c389"></path><path d="M0 555L18.8 554.7C37.7 554.3 75.3 553.7 112.8 553.8C150.3 554 187.7 555 225.2 557C262.7 559 300.3 562 337.8 560.3C375.3 558.7 412.7 552.3 450.2 552C487.7 551.7 525.3 557.3 562.8 558.7C600.3 560 637.7 557 675.2 557.7C712.7 558.3 750.3 562.7 787.8 561.2C825.3 559.7 862.7 552.3 881.3 548.7L900 545L900 601L881.3 601C862.7 601 825.3 601 787.8 601C750.3 601 712.7 601 675.2 601C637.7 601 600.3 601 562.8 601C525.3 601 487.7 601 450.2 601C412.7 601 375.3 601 337.8 601C300.3 601 262.7 601 225.2 601C187.7 601 150.3 601 112.8 601C75.3 601 37.7 601 18.8 601L0 601Z" fill="#71bf2f"></path></svg>